<svg xmlns="http://www.w3.org/2000/svg" version="1.1" viewBox="-5.0 -10.0 110.0 135.0">
 <path d="m89.219 42.164c-3.7656-0.88672-8.8828-3.3047-10.461-4.3008-0.70312-0.44531-1.375-0.875-2.0195-1.2891-4.6797-3.0078-8.0586-5.1836-11.867-4.5391-0.69922 0.11719-1.7812 0.53516-3.1523 1.0664-2.2461 0.87109-5.3242 2.0586-7.668 2.1914-0.18359 0.011719-0.34375 0.10156-0.45312 0.23047l-5.2031-7.0586-36.809 27.145 14.266 19.348 34.848-25.695c-0.28516-0.035157-0.58203-0.0625-0.89062-0.082031-0.51172-0.03125-1.0117-0.09375-1.4961-0.1875l-10.043 7.4062c-0.18359 0.13281-0.44141 0.09375-0.57422-0.089844-0.13281-0.18359-0.09375-0.44141 0.089844-0.57422l9.4766-6.9883c-0.85156-0.23828-1.6328-0.55859-2.3164-0.92578 1.2422 0.59766 2.7344 1.0117 4.2852 1.1094 2.9844 0.1875 4.668 1.1562 6.293 2.0938 2.1602 1.2461 4.1992 2.4219 8.5938 1.3281 3.8203-0.94922 5.4062-0.19531 8.0312 1.0547 0.64062 0.30469 1.3633 0.64844 2.1758 0.98828 0.082031 0.035157 0.16406 0.050781 0.25 0.050781 0.25 0 0.48828-0.14844 0.59375-0.39453 0.13672-0.32812-0.015625-0.70312-0.34375-0.84375-0.78516-0.32812-1.4648-0.65234-2.1211-0.96484-2.6836-1.2773-4.625-2.1992-8.8945-1.1406-3.8906 0.96484-5.5469 0.011719-7.6445-1.1953-1.6719-0.96484-3.5664-2.0547-6.8555-2.2617-3.7734-0.23438-6.2109-2.3125-6.2227-3.3164-0.007813-0.48438 0.76172-0.85547 2.0234-0.97266 2.6094-0.23828 3.6914-0.33984 7.2773 0.76562 0.92578 0.28516 5.1523 0.83203 6.2969-0.074219 0.27734-0.21875 0.32422-0.625 0.10547-0.90234-0.22266-0.27734-0.625-0.32422-0.90234-0.10547-0.50391 0.37891-3.9219 0.22266-5.1211-0.14844-3.8281-1.1797-5.0625-1.0664-7.7852-0.81641-0.40234 0.039062-0.75391 0.097656-1.0625 0.17578 0.3125-0.097656 0.65625-0.17969 1.0547-0.23047l-7.3359-9.9492-11.367 8.3828c-0.18359 0.13281-0.44141 0.09375-0.57422-0.089844-0.13281-0.18359-0.09375-0.44141 0.089844-0.57422l11.695-8.625c0.18359-0.13281 0.44141-0.09375 0.57422 0.089844l7.8711 10.676c0.85938-0.078126 1.582-0.12891 2.3164-0.11719l-3.8789-5.2617c2.5-0.19922 5.4453-1.332 7.8281-2.2539 1.25-0.48438 2.3281-0.90234 2.8984-1 3.3203-0.55859 6.3594 1.3945 10.961 4.3516 0.64453 0.41406 1.3203 0.84766 2.0273 1.2969 1.6367 1.0352 6.9492 3.5469 10.852 4.4648 0.050781 0.011719 0.097656 0.015625 0.14844 0.015625 0.29297 0 0.55469-0.19922 0.625-0.49609 0.082031-0.34766-0.13281-0.69141-0.48047-0.77344zm-51 21.652-11.445 8.4414c-0.18359 0.13281-0.44141 0.09375-0.57422-0.089843l-11.844-16.062c-0.13281-0.18359-0.09375-0.44141 0.089843-0.57422l11.727-8.6484c0.18359-0.13281 0.44141-0.09375 0.57422 0.089844 0.13281 0.18359 0.09375 0.44141-0.089844 0.57422l-11.398 8.4023 11.355 15.398 11.117-8.1992c0.18359-0.13281 0.44141-0.09375 0.57422 0.089843 0.13281 0.18359 0.09375 0.44141-0.089844 0.57422zm-0.74609-21.844c2.3594 0.68359 4.6953 2.293 6.457 4.6641 0.019531 0.023437 0.039062 0.050781 0.058593 0.078125 1.7461 2.3828 2.5898 5.0898 2.5469 7.543-0.046875 2.5156-1.0195 4.7734-2.9062 6.1875-0.027344 0.023438-0.054687 0.042969-0.082031 0.058594-1.9062 1.3867-4.3516 1.6484-6.7656 0.94531-2.3711-0.6875-4.7227-2.3086-6.4883-4.7031-1.7617-2.3906-2.6172-5.1133-2.5742-7.582 0.046875-2.5312 1.0312-4.8047 2.9492-6.2227 1.9141-1.4102 4.3711-1.6758 6.8047-0.97266zm25.262 0.03125 0.007813 0.1875c0.011718 0.22266-0.16016 0.41016-0.38281 0.42188h-0.019531c-0.21484 0-0.39062-0.16797-0.40234-0.38281l-0.007812-0.18359c-0.046876-0.84375-0.12109-2.2617 1.1328-3.0977 0.18359-0.12109 0.43359-0.074219 0.55859 0.11328 0.12109 0.18359 0.074218 0.43359-0.11328 0.55859-0.875 0.58203-0.82031 1.582-0.77734 2.3867zm-29.336 3.5547c-0.21484-0.29297-0.625-0.35547-0.91797-0.14062-0.29297 0.21484-0.35547 0.625-0.14062 0.91797l0.67578 0.91797c-0.65625 0.61719-1.1172 1.3516-1.3438 2.0898-0.29688 0.96484-0.20703 1.9453 0.33984 2.7148 0.019531 0.027344 0.039062 0.058594 0.0625 0.082031 0.57812 0.75 1.4844 1.125 2.4961 1.1289 0.77344 0 1.6094-0.22266 2.3906-0.66797l2.4258 3.2891c-0.53906 0.28125-1.0938 0.42188-1.6055 0.42188-0.61719 0-1.1562-0.21094-1.4688-0.63672-0.019531-0.027343-0.042969-0.054687-0.066406-0.078125-0.25781-0.25781-0.67188-0.25781-0.92969 0-0.24609 0.24609-0.25781 0.63672-0.03125 0.89844 0.57812 0.75 1.4844 1.1289 2.4961 1.1289 0.77344 0 1.6094-0.22266 2.3906-0.66797l0.67578 0.91406c0.21484 0.29297 0.625 0.35547 0.91797 0.14062 0.29297-0.21484 0.35547-0.625 0.14062-0.91797l-0.67578-0.91797c0.65625-0.61719 1.1172-1.3516 1.3438-2.0898 0.29688-0.96484 0.20703-1.9453-0.33984-2.7148-0.019531-0.027344-0.039063-0.058594-0.0625-0.082032-0.57812-0.75-1.4844-1.1289-2.4961-1.1289-0.77344 0-1.6094 0.22266-2.3906 0.66797l-2.4258-3.2891c0.53906-0.28125 1.0938-0.42187 1.6055-0.42187 0.61719 0 1.1562 0.21094 1.4688 0.63672 0.21484 0.29297 0.625 0.35547 0.91797 0.14062 0.29297-0.21484 0.35547-0.625 0.14063-0.91797-0.57422-0.77734-1.5-1.168-2.5273-1.1719-0.77344 0-1.6094 0.22266-2.3906 0.66797zm6.2773 5.9141c0.61719 0 1.1562 0.21094 1.4688 0.63672s0.35547 1.0039 0.17578 1.5938c-0.14844 0.48828-0.44922 0.97656-0.875 1.4062l-2.3711-3.2148c0.53906-0.28125 1.0938-0.42188 1.6055-0.42188zm-3.5 0.0625c-0.53906 0.28125-1.0938 0.42188-1.6055 0.42188-0.61719 0-1.1562-0.21094-1.4688-0.63672-0.3125-0.42578-0.35547-1.0039-0.17578-1.5938 0.14844-0.48828 0.44922-0.97656 0.875-1.4062l2.3711 3.2148zm-21.777-0.058594-4.1094-9.4062 38.977-17.031 1.9141 4.3828-2.0352-2.7617c-0.21094-0.28516-0.61328-0.34766-0.89844-0.14062l-1.7031 1.2578-11.141 4.8672c-0.20312 0.089844-0.29688 0.32422-0.20703 0.53125 0.089844 0.20312 0.32422 0.29688 0.53125 0.20703l7.8984-3.4531-6.9492 5.125c-1.0039-0.58203-2.0703-0.95703-3.1328-1.0898-1.1719-0.14844-2.3438 0-3.4453 0.48047-1.5508 0.67578-2.7109 1.918-3.4336 3.4883-0.67578 1.4766-0.95703 3.2422-0.79297 5.0898l-9.418 6.9453-2.9961-6.8555 12.066-5.2734c0.20312-0.089844 0.29687-0.32422 0.20703-0.52734-0.089844-0.20312-0.32422-0.29688-0.53125-0.20703l-12.438 5.4336c-0.20312 0.089844-0.29688 0.32422-0.20703 0.53125l3.2305 7.3906-1.3867 1.0234zm18.977-16.23c0.71875 0.089844 1.4414 0.3125 2.1406 0.65625l-8.4102 6.2031c-0.015625-1.3281 0.23047-2.5781 0.71875-3.6406 0.58984-1.2852 1.5312-2.2969 2.7773-2.8398 0.875-0.38281 1.8203-0.49609 2.7734-0.37891z"/>
<text x="0.0" y="117.5" font-size="5.0" font-weight="bold" font-family="Arbeit Regular, Helvetica, Arial-Unicode, Arial, Sans-serif" fill="#000000">Created by Eskak</text><text x="0.0" y="122.5" font-size="5.0" font-weight="bold" font-family="Arbeit Regular, Helvetica, Arial-Unicode, Arial, Sans-serif" fill="#000000">from Noun Project</text></svg>