<svg xmlns="http://www.w3.org/2000/svg" version="1.1" viewBox="-5.0 -10.0 110.0 135.0">
 <path d="m25.352 39.441-1.1094-2.4102c-0.40234-0.875-1.4414-1.2578-2.3164-0.85547l-1.5625 0.71875c-0.875 0.40234-1.2578 1.4414-0.85547 2.3164l1.1094 2.4102c0.19531 0.42188 0.54297 0.74609 0.98047 0.90625 0.19922 0.074218 0.40234 0.10938 0.60938 0.10938 0.25 0 0.49609-0.054688 0.72656-0.16016l1.5625-0.71875c0.875-0.40234 1.2578-1.4414 0.85547-2.3164zm-1.3906 1.1523-1.5625 0.71875c-0.11328 0.050781-0.23828 0.054688-0.35938 0.011719-0.11719-0.042969-0.21094-0.12891-0.26172-0.24219l-1.1094-2.4102c-0.10938-0.23438-0.003907-0.51172 0.23047-0.62109l1.5625-0.71875c0.0625-0.027343 0.12891-0.042969 0.19531-0.042969 0.17578 0 0.34766 0.10156 0.42578 0.27344l1.1094 2.4102c0.10938 0.23438 0.003906 0.51172-0.23047 0.62109zm5.4609 7.6875-1.1094-2.4102c-0.19531-0.42188-0.54297-0.74609-0.98047-0.90625s-0.91016-0.14453-1.3359 0.050781l-1.5625 0.71875c-0.875 0.40234-1.2578 1.4414-0.85547 2.3164l1.1094 2.4102c0.29297 0.64062 0.92578 1.0156 1.5898 1.0156 0.24219 0 0.49219-0.050781 0.72656-0.16016l1.5625-0.71875c0.875-0.40234 1.2578-1.4414 0.85547-2.3164zm-1.3906 1.1562-1.5625 0.71875c-0.23438 0.10938-0.51172 0.003906-0.62109-0.23047l-1.1094-2.4102c-0.10938-0.23438-0.003906-0.51172 0.23047-0.62109l1.5625-0.71875c0.11328-0.050781 0.23828-0.054687 0.35938-0.011719 0.11719 0.042969 0.21094 0.12891 0.26172 0.24219l1.1094 2.4102c0.10938 0.23438 0.003906 0.51172-0.23047 0.62109zm4.3477 5.2773c-0.19531-0.42188-0.54297-0.74609-0.98047-0.90625s-0.91016-0.14453-1.3359 0.050781l-1.5625 0.71875c-0.875 0.40234-1.2578 1.4414-0.85547 2.3164l1.1094 2.4102c0.19531 0.42187 0.54297 0.74609 0.98047 0.90625 0.19922 0.074218 0.40234 0.10937 0.60938 0.10937 0.25 0 0.49609-0.054687 0.72656-0.16016l1.5625-0.71875c0.42188-0.19531 0.74609-0.54297 0.90625-0.98047 0.16016-0.4375 0.14453-0.91016-0.050781-1.3359zm-0.035156 3.3008c-0.042969 0.11719-0.12891 0.21094-0.24219 0.26172l-1.5625 0.71875c-0.23437 0.10938-0.51172 0.003906-0.62109-0.23047l-1.1094-2.4102c-0.10938-0.23438-0.003906-0.51172 0.23047-0.62109l1.5625-0.71875c0.11328-0.050781 0.23828-0.054687 0.35938-0.011719 0.11719 0.042969 0.21094 0.12891 0.26172 0.24219l1.1094 2.4102c0.050781 0.11328 0.054688 0.23828 0.011719 0.35938zm57.207 10.223c-4.6445-4.0781-10.051-11.34-11.523-13.93-0.65625-1.1484-1.2695-2.25-1.8672-3.3164-4.2695-7.6328-7.3516-13.145-13.027-15.043-1.0312-0.34375-2.8398-0.5625-5.1367-0.83984-3.75-0.45312-8.8477-1.0742-12.285-2.5977l-5.7031-12.395c-0.61328-1.3359-2.1992-1.9219-3.5352-1.3086l-4.4805 2.0625-2.5938 1.1953-17.617 8.1055c-0.64453 0.29688-1.1367 0.82812-1.3828 1.4961-0.24609 0.66797-0.21875 1.3945 0.078124 2.0391l16.586 36.039c0.44922 0.97656 1.4141 1.5508 2.4258 1.5508 0.37109 0 0.75-0.078125 1.1094-0.24219l7.1875-3.3086c0.67578 0.88672 1.875 1.4805 3.3477 1.6172 0.22266 0.019531 0.44141 0.03125 0.66016 0.03125 1.8438 0 3.5117-0.72266 4.3633-1.9258 0.12891-0.18359 0.25-0.39844 0.35547-0.64062 0.94531 0.875 2.3789 1.5039 3.6836 1.5039 0.13672 0 0.26953-0.007812 0.40234-0.019531 1.2227-0.12891 2.0977-0.83203 2.5273-1.9805 1.6523 1.7422 3.9766 3.2461 8.0156 4.2617 6.1953 1.5586 7.9805 3.9688 10.68 7.6133 0.66797 0.89844 1.4219 1.918 2.3008 2.9961 0.125 0.15625 0.30859 0.23438 0.49609 0.23438 0.14062 0 0.28516-0.046875 0.40234-0.14453 0.27344-0.22266 0.31641-0.625 0.09375-0.89844-0.85938-1.0547-1.5742-2.0195-2.2656-2.9531-2.7617-3.7266-4.7578-6.4219-11.395-8.0898-6.3242-1.5898-8.0469-4.3516-10.047-7.5469-1.6016-2.5625-3.418-5.4688-7.793-8.1602-5.0312-3.0977-7.3047-8-6.3828-9.793 0.46484-0.90234 1.9336-0.91797 4.0273-0.035156l0.019532 0.007813c3.8867 1.6328 5.4961 2.3086 9.7422 6.5859 1.1914 1.1992 6.5547 4.8516 8.5391 4.4883 0.34766-0.0625 0.57812-0.39453 0.51562-0.74219s-0.39453-0.57812-0.74219-0.51562c-0.75391 0.14062-3.0312-1.0352-4.9297-2.2656l-1.7031-3.6992c0.52734-1.125 1.2695-2.5469 2.9766-2.7148 0.21875-0.023438 0.37891-0.21875 0.35938-0.4375-0.023437-0.21875-0.21875-0.37891-0.4375-0.35938-1.8164 0.17969-2.7344 1.4414-3.3281 2.5781l-5.7734-12.547c3.4492 1.2227 7.7812 1.75 11.355 2.1797 2.1328 0.25781 3.9766 0.48047 4.8828 0.78125 5.207 1.7422 8.0352 6.7969 12.316 14.453 0.59766 1.0664 1.2148 2.1719 1.8711 3.3281 1.5117 2.6523 7.0391 10.086 11.789 14.258 0.12109 0.10547 0.27344 0.16016 0.42187 0.16016 0.17578 0 0.35547-0.074219 0.48047-0.21875 0.23438-0.26562 0.20703-0.66797-0.058593-0.90234zm-44.441-1.5117c-0.68359 0.96484-2.2344 1.5117-3.8594 1.3633-0.96094-0.089844-1.7695-0.41797-2.2617-0.89844l6.3164-2.9062c0.31641 0.96875 0.26953 1.793-0.19141 2.4414zm6.9883-1.6016c-0.14453 1.1641-0.69141 1.8125-1.6367 1.9102-1.4883 0.15625-3.3867-1.0156-3.6875-1.9805-0.03125-0.39844-0.125-0.83594-0.29297-1.3125l3.5938-1.6562c0.082031 0.13281 0.16406 0.26172 0.24609 0.39062 0.56641 0.90625 1.125 1.793 1.7773 2.6445zm-2.7227-4.125-2.6641 1.2266-3.3164-7.2031c3.0312 1.9609 4.6602 3.9844 5.9766 5.9766zm-8.0312-7.3828 4.207 9.1406-0.15625 0.070313-15.332 7.0586c-0.33594 0.15234-0.71094 0.16797-1.0586 0.039062-0.34766-0.12891-0.625-0.38281-0.78125-0.71875l-16.586-36.035c-0.15234-0.33594-0.16797-0.71094-0.039063-1.0586 0.12891-0.34766 0.38281-0.625 0.71875-0.78125l15.492-7.1289 8.5703 18.625c-0.12109 0.14844-0.21875 0.29688-0.28906 0.4375-1.1719 2.2812 0.89062 6.9844 5.2578 10.352zm-3.9023-11.539-8.4727-18.41 2.9766-1.3711 9.2617 20.129c-1.7773-0.66016-2.9727-0.64062-3.7695-0.34766zm14.48 7.4297c-3.9609-3.9844-5.8164-5.0117-8.9766-6.3633l-9.8398-21.379 3.8984-1.793c0.69531-0.32031 1.5195-0.015625 1.8398 0.67969l13.43 29.184c-0.13281-0.11328-0.25391-0.22656-0.35547-0.32422z"/>
<text x="0.0" y="117.5" font-size="5.0" font-weight="bold" font-family="Arbeit Regular, Helvetica, Arial-Unicode, Arial, Sans-serif" fill="#000000">Created by Eskak</text><text x="0.0" y="122.5" font-size="5.0" font-weight="bold" font-family="Arbeit Regular, Helvetica, Arial-Unicode, Arial, Sans-serif" fill="#000000">from Noun Project</text></svg>