<svg xmlns="http://www.w3.org/2000/svg" xmlns:xlink="http://www.w3.org/1999/xlink" version="1.1" x="0px" y="0px" viewBox="0 0 55 68.75" style="enable-background:new 0 0 55 55;" xml:space="preserve"><g><path d="M3.7359614,16.5099087c0.0306396-0.0450439,0.071228-0.0946045,0.1287842-0.1657104l6.1365361-1.9348135   c0.0874023,0.0385132,0.1746826,0.0617065,0.2620239,0.1054077c2.3184814,1.1644897,4.1531372,3.9050283,4.8328247,7.1760244   c-1.9532709,0.8047562-2.3980236,0.6953793-2.6993408,1.2575684c-3.1688232,1.1837769-4.4099126,4.418396-3.6764526,9.626955   c0.0722656,0.5224609,0.3808594,0.9921875,0.8222656,1.2568359l23.3291016,14.1660156   c0.8897209,0.531292,1.9585686,0.6451378,2.9570313,0.2919922l14.7568359-6.3183594   c0.7070313-0.2480469,1.1748047-0.96875,1.1376953-1.7519531V40.218895l-0.2558594-5.0996094   c-0.0222168-0.3955688-0.1793213-0.7694092-0.4338989-1.071167c0.0621948-0.5093994-0.1596069-1.0162964-0.6032104-1.2940674   l-9.9912109-6.0917988c-0.0585938-0.0419922-0.1142578-0.0810547-0.1650391-0.1484375l-9.3027344-9.8476563   c-0.3701172-0.3828125-0.9296875-0.5107422-1.4296875-0.3271484l-1.8357544,0.6801147   c-0.6301613-6.742095-5.5326805-9.5940609-9.7316284-8.9476919C10.5709229,9.2325659,5.7740474,11.906394,3.3101802,16.2481899   C3.1525309,16.5263958,3.5606668,16.7751579,3.7359614,16.5099087z M50.4039307,41.5060043l-14.7568359,6.3193359   c-0.8369141,0.2929688-1.7529297,0.2001953-2.5175781-0.2558594L9.800415,33.4034653   c-0.3144531-0.1875-0.5332031-0.5234375-0.5849609-0.8974609c-0.671875-4.7705097,0.3535156-7.7871113,3.0498047-8.9736347   c0.0436735,0.1000977,0.0477304,0.3246899,0.2851563,0.5507813l10.0800781,9.5459003   c0.0029297,0.0029297,0.0458984,0.0380859,0.0488281,0.0410156c0.0429688,0.0361328,0.0966797,0.0820313,0.1464844,0.1044922   l11.4443359,7.4873047c0.3380089,0.2220955,0.8155022,0.2615929,1.1835938,0.1386719   c15.1113815-6.5181046,14.9667854-6.1794357,15.3759766-6.7724609c0.2205353,0.4437637,0.0900497,0.3346672,0.3935547,5.6152344   C51.2506104,40.8077621,50.9205322,41.3243637,50.4039307,41.5060043z M29.7154541,16.8077602   c0.2999744-0.1124897,0.6566734-0.0409641,0.8945313,0.2041016l9.2783203,9.8183594   c0.078125,0.109375,0.1796875,0.1816406,0.2763672,0.25l10.0029297,6.0996113   c0.5376968,0.3367996,0.3677826,0.9964333,0.3681641,0.8955078c-0.1670723,0.744976-0.2484856,0.3475533-15.2587891,6.8574219   c-0.2460938,0.0839844-0.5214844,0.0498047-0.7333984-0.0888672l-11.4697266-7.5019531   c-0.0205078-0.0097656-0.0390625-0.0263672-0.0996094-0.0761719l-10.0791016-9.5449238   c-0.2552671-0.2429638-0.122283-0.6295624,0.1494141-0.7373047L29.7154541,16.8077602z M18.0513916,8.5655737   c3.9709568-0.6134,8.6187534,2.1184807,9.1733398,8.631835l-11.6578979,4.3190308   c-0.7217407-3.3847656-2.6448364-6.2252188-5.0789185-7.4489126c-1.7675781-0.8837891-3.5410161-0.8046875-5.1093755,0.1787109   C8.0250244,11.3497534,12.2027588,9.4825659,18.0513916,8.5655737z"/><path d="M22.7564697,30.4376431c0.0698414,0.0639,0.1708336,0.0807095,0.2548828,0.0488281l13.3095703-5.0078125   c0.0800781-0.0302734,0.1396484-0.0996094,0.1572266-0.1835938c0.0166016-0.0839844-0.0097656-0.1708984-0.0712891-0.2304688   l-6.2373047-6.0615234c-0.0673828-0.0654297-0.1669922-0.0859375-0.2587891-0.0556641l-13.6601563,4.9199219   c-0.1722202,0.0628986-0.2887039,0.4505577-0.1259766,0.5966797L22.7564697,30.4376431z M22.9781494,29.9649868   l-5.1842041-4.6696167l11.963501-4.3023682l4.7618408,4.62854L22.9781494,29.9649868z"/><path d="M32.3525391,33.3284531l-2.0571289-1.6543598c-0.0721436-0.0581055-0.1700439-0.0726929-0.2560425-0.038269   l-3.230896,1.2926655c-0.1842651,0.0737915-0.2223511,0.3167114-0.0652466,0.4380493   c0.5948486,0.4592285,1.7368164,1.3777466,2.1032104,1.6730347c0.072876,0.0587158,0.170105,0.0715942,0.2566528,0.0360107   l3.1862183-1.3099976C32.4698486,33.6913681,32.5046387,33.4507675,32.3525391,33.3284531z"/><path d="M34.1870117,33.0538559l3.1401367-1.4169941c0.1778564-0.0802612,0.2045288-0.3218994,0.0484009-0.4390259   l-2.1118774-1.5838623c-0.0740967-0.055603-0.1724243-0.0668945-0.2572021-0.0296021l-3.1853027,1.4011841   c-0.1817017,0.0799561-0.2115479,0.3240356-0.050415,0.4400024c0.6099854,0.4388428,1.7823486,1.3182392,2.1585693,1.6009541   C34.0040894,33.0827255,34.1017456,33.092308,34.1870117,33.0538559z"/><path d="M38.819458,31.1304531c0.0726929,0.0588989,0.1699219,0.0719604,0.2565308,0.0366211l3.1893311-1.3024292   c0.1807251-0.0737915,0.2160645-0.31427,0.06427-0.4369507l-2.0531616-1.6593018   c-0.0720215-0.0582275-0.1698608-0.0730591-0.2559204-0.0388794l-3.2339478,1.2850342   c-0.1845093,0.0733032-0.2231445,0.3161621-0.0662842,0.4378662C37.3139648,29.9130459,38.4537354,30.8343105,38.819458,31.1304531   z"/><path d="M34.538269,34.8667221c-0.0740967-0.055542-0.1724243-0.0668945-0.2572021-0.029541l-3.1853027,1.4011841   c-0.1817017,0.079895-0.2115479,0.3240356-0.050415,0.4399414c0.6099854,0.4389038,1.7823486,1.3182983,2.1585693,1.6010132   c0.0747681,0.0562134,0.1724243,0.0657959,0.2576904,0.0273438l3.1401367-1.4169922   c0.1778564-0.0803223,0.2045288-0.3219604,0.0484009-0.4390259L34.538269,34.8667221z"/><path d="M39.3393555,32.8432846c-0.0740967-0.055542-0.1723633-0.0668945-0.2571411-0.029541l-3.1853638,1.4011841   c-0.1817017,0.079895-0.2115479,0.3240356-0.050415,0.4399414c0.6100464,0.4389038,1.7823486,1.3182983,2.1585693,1.6010132   c0.0748291,0.0562134,0.1724243,0.0657959,0.2576904,0.0272827l3.1401367-1.4169312   c0.1779175-0.0803223,0.2045288-0.3219604,0.0484009-0.4390259L39.3393555,32.8432846z"/><path d="M40.6254883,32.7192612c0.6099854,0.4389038,1.7823486,1.3182373,2.1585693,1.6010132   c0.0747681,0.0562134,0.1724243,0.0657959,0.2576904,0.0272827l3.1401367-1.4169922   c0.1778564-0.0802612,0.2045288-0.3218994,0.0484009-0.4390259l-2.1118774-1.5838642   c-0.0740967-0.055603-0.1724243-0.0668945-0.2572021-0.0296021l-3.1853027,1.401186   C40.4942017,32.3592148,40.4643555,32.6032944,40.6254883,32.7192612z"/><path d="M34.5689697,42.1661606v4.4599609c0,0.1376953,0.1123047,0.25,0.25,0.25s0.25-0.1123047,0.25-0.25v-4.4599609   C35.0689697,41.8356705,34.5689697,41.8353882,34.5689697,42.1661606z"/><path d="M17.5488281,16.4762173c0.1649437,0.0743198,0.3795433,0.0176544,0.4104004-0.2010498   c1.1184311-6.0532246,1.2211857-5.8997345,0.927063-6.0466299c-0.1744766-0.0838976-0.3823338-0.0148716-0.4124756,0.1968384   C17.3717461,16.4156265,17.2479343,16.3372917,17.5488281,16.4762173z"/><path d="M19.2299805,14.2148046c0.2094116,0.4874878,0.4968872,0.8291626,0.8604126,1.0270386   c0.7850952,0.4250526,2.0773754,0.0641994,2.1103516-0.9749146c0.0234051-0.5968189-0.385067-1.5460711-1.052063-1.9082642   C20.1975021,11.8444958,18.4789219,12.4712076,19.2299805,14.2148046z M20.8570557,12.7815771   c0.223938,0.1437378,0.416626,0.401001,0.5770264,0.7728882c0.256134,0.5941505,0.2842045,1.184926-0.333313,1.3686523   c-0.25,0.0750122-0.4874878,0.0406494-0.7124634-0.1020508c-0.4090347-0.2618628-0.732975-1.0082607-0.7520752-1.427063   C19.6045074,12.6935577,20.3661747,12.4701662,20.8570557,12.7815771z"/><path d="M15.2874756,14.3294287c0.6711884,0.3655157,1.5096989,0.1119442,1.8592529-0.3062744   c0.7365685-0.8968592-0.2898121-3.1860762-1.9915771-2.6780396c-0.5320921,0.1589317-0.8886261,0.5105209-0.9155884,1.0739746   C14.2090702,13.0120478,14.6161528,13.9590082,15.2874756,14.3294287z M15.3364258,11.7680273   c1.0551529-0.315033,1.725069,1.435154,1.3457642,1.9812012c-0.1912785,0.2730408-0.6815414,0.4287939-1.1020508,0.15625   c-0.4213305-0.2718229-0.7338381-1.0095558-0.7478638-1.4249878C14.8216419,12.1070871,15.004282,11.8685713,15.3364258,11.7680273   z"/><path d="M28.3834229,6.702292l-0.8310547,3.6875005c-0.0726089,0.3232279,0.4152489,0.4312534,0.4882813,0.109375   l0.8310547-3.6875005c0.0302734-0.1347656-0.0546875-0.2685547-0.1894531-0.2988281   C28.5435791,6.4825654,28.4136963,6.5685029,28.3834229,6.702292z"/><path d="M30.1148682,9.8243628L28.97229,10.9415503c-0.2365227,0.2318392,0.1137753,0.5885391,0.3496094,0.3574219   l1.1425781-1.1171875C30.6999645,9.9509602,30.3534431,9.5928726,30.1148682,9.8243628z"/><path d="M29.9215088,12.687644l2.4667969,0.5712891c0.318985,0.0797462,0.4366264-0.4131622,0.1132813-0.4863281   L30.03479,12.2013159C29.7115898,12.1256733,29.6009445,12.6151075,29.9215088,12.687644z"/></g><text x="0" y="70" fill="#000000" font-size="5px" font-weight="bold" font-family="'Helvetica Neue', Helvetica, Arial-Unicode, Arial, Sans-serif">Created by ProSymbols</text><text x="0" y="75" fill="#000000" font-size="5px" font-weight="bold" font-family="'Helvetica Neue', Helvetica, Arial-Unicode, Arial, Sans-serif">from the Noun Project</text></svg>