<svg xmlns="http://www.w3.org/2000/svg" xmlns:xlink="http://www.w3.org/1999/xlink" version="1.1" x="0px" y="0px" viewBox="0 0 100 125" style="enable-background:new 0 0 100 100;" xml:space="preserve"><g><path d="M92.8182983,30.6477051c-0.092041-0.5314941-0.2188721-1.2593384-0.3457031-2.3676758   c-0.1593628-1.3939819-0.4118652-2.0241699-0.8428955-2.1061401c-0.1066284-0.0195923-0.2053833-0.0039062-0.2940674,0.0370483   c-1.0357666-2.5213623-1.8140869-3.0089111-1.9230347-3.0667725c-0.0007324-0.0004272-0.0010376-0.0013428-0.0018311-0.00177   L60.6633911,7.5390625c-0.21521-0.142395-2.194397-1.3228149-4.536499,1.4232788   C55.8059082,9.3383789,23.9675903,46.8227539,23.4356079,48.597168c-0.0020142,0.0067139,0.0036621,0.0131836,0.0021362,0.0199585   c-0.00177,0.0073242-0.0098877,0.0106812-0.0111084,0.0182495c-0.0230103,0.1498413-0.5662231,3.6791382-0.2362671,5.0820923   c0.3303223,1.4020996,1.9519043,3.1273804,2.0656738,3.2477417L9.4418945,75.5374756   c-0.3007812,0.4354858-0.6105957,1.4769897,0.371521,2.3075562c1.0426636,0.8833008,19.911377,13.4381714,20.670105,13.9364624   c0.0095825,0.0101318,0.6021729,0.5858765,1.5062256,0.5847778c0.5735474,0,1.2722168-0.2312012,2.0270386-0.9854126   c1.3476562-1.3477173,10.5026855-12.9938354,14.9820557-18.7150879c0.0036621,0.0018921,0.0040283,0.0067749,0.0077515,0.0084839   c0.1616211,0.0752563,3.9754028,1.8609009,5.6690674,2.2649536c0.3535767,0.0842285,0.6566162,0.1190186,0.9147339,0.1190186   c0.9674683,0,1.3109131-0.4837646,1.3984985-0.6442871c0.6206665-0.7856445,16.6829224-21.1117554,20.5876465-25.9553833   c0.5723877-0.7087402,1.0639648-1.3265991,1.4927368-1.8642578c2.5500488-3.2015381,2.7610474-3.4557495,4.1246948-3.4013062   c1.9394531,0.0976562,2.4119873-0.833374,2.4063721-0.833374c1.1473389-1.489502,6.7763672-8.8270264,7.2283325-9.8816528   c0.0004883-0.0006714,0.0014648-0.0006104,0.0020142-0.0014038c0.0007935-0.0014038-0.0001221-0.0029907,0.0007324-0.0043945   c0.0081177-0.0192871,0.0273438-0.052063,0.0317993-0.0668335C93.0281982,31.8570557,92.9619751,31.4782104,92.8182983,30.6477051z    M88.6812744,23.4005127c-0.6543579,0.3934326-1.8833618,1.2155762-2.8845215,2.3721313   c-1.3468628,1.5534058-29.510498,37.4007568-32.0021362,40.5725708c-0.8237305-0.3430176-4.1081543-1.7422485-8.2901611-3.9101562   c0.4276733-1.9067383-0.9106445-2.8155518-0.9250488-2.8251953c-0.2800293-0.1784058-6.8756714-4.4019165-8.1119385-4.9395142   c-1.2396851-0.5374146-2.5565186,0.3605957-2.8475952,0.5775757c-2.8329468-2.0393066-5.4924927-4.2797852-7.6067505-6.6541138   l31.4336548-37.7357788c0.5836792-0.687439,2.2178345-2.4641724,3.0360718-2.7632446L88.6812744,23.4005127z    M44.9788818,62.1601562c-3.3568726-1.7608032-7.2283936-3.993042-10.8590698-6.55896   c0.3998413-0.2595825,1.3170776-0.750061,2.1186523-0.4033203c1.1947632,0.5184937,7.9627075,4.8530884,8.0300293,4.895752   C44.3112183,60.1213989,45.2227783,60.7597656,44.9788818,62.1601562z M56.5646362,9.3349609   c1.4343872-1.6817017,2.6340942-1.7075806,3.2769165-1.5368042c-1.1326294,0.713562-2.635437,2.4555054-2.8347168,2.6900635   l-31.5924683,37.927124c-0.0909424,0.1088867-0.0886841,0.2671509,0.0044556,0.37323   c5.0325928,5.7454224,13.2402954,10.720459,19.5350342,14.0057373c0.0352173,0.0471191,0.074707,0.0932007,0.1350708,0.1119995   c0.0280762,0.0078125,0.0567017,0.0123291,0.0841675,0.0123291c0.0043945,0,0.0076904-0.0036621,0.0119629-0.0038452   c4.8502197,2.5183716,8.510498,4.0119019,8.593811,4.0455322c0.0348511,0.0145874,0.0718384,0.0213013,0.1077881,0.0213013   c0.0864258,0,0.1705933-0.0393066,0.2255859-0.1099854c0.3075562-0.390625,30.7495728-39.1427002,32.1177368-40.7229614   c0.5540771-0.6390991,1.1867065-1.1687012,1.7446289-1.5792236L53.536438,67.967041   C30.0761108,56.7927246,24.6960449,49.6432495,24.0360718,48.6566772   C25.413208,46.1644287,51.0335693,15.8189087,56.5646362,9.3349609z M33.6104736,90.9745483   c-1.5320435,1.5308838-2.6746216,0.4455566-2.7644043,0.3647461c-0.1964111-0.1312866-19.6437378-13.071106-20.6611328-13.9319458   c-0.8115234-0.6868896-0.3272095-1.4580078-0.2879028-1.5197144l17.4768066-20.5228882   c2.5560913,2.1776733,10.2305908,8.1480103,23.486145,13.9877319   C49.4228516,71.1933594,35.2625122,89.3224487,33.6104736,90.9745483z M85.8540649,41.0900879   c-0.6308594-0.2946777-2.4788208-0.8050537-5.0524902,1.5756836c-1.890686,1.7489014-13.7341309,16.9569092-20.3668213,25.5787354   c-2.6807251,3.4846802-3.4880371,4.9442749-3.6970215,5.5605469c-0.1315918,0.1665649-0.2064819,0.2612305-0.2168579,0.2744141   c-0.0134888,0.0168457-0.0280762,0.0449219-0.038208,0.0640259c-0.0010376,0.0042725-0.2711182,0.5001221-1.4708862,0.2738037   c-0.4223633-3.3170776,1.5310059-5.640625,1.5629272-5.6780396c0.2457886-0.3243408,24.6472778-32.4320068,27.6552124-36.0740967   c2.5245972-3.0523682,6.9631958-0.8071289,7.9836426-0.2294312C91.600708,33.4896851,88.3340454,37.845459,85.8540649,41.0900879z    M92.3770142,31.8704224c-1.3034058-0.7120361-5.8745728-2.8562622-8.5892944,0.428833   c-3.0169067,3.651062-27.4240112,35.7677002-27.6585693,36.0774536c-0.0883179,0.1012573-2.0505371,2.4430542-1.7024536,5.8986816   c-1.6138306-0.4837646-4.4950562-1.8054199-5.0666504-2.071106c1.0932007-1.3969116,1.8425293-2.3571167,2.0397949-2.6100464   c0.0894775,0.0389404,0.1711426,0.078064,0.2611694,0.1170044c0.0369873,0.015686,0.0762939,0.0235596,0.1144409,0.0235596   c0.111145,0,0.2166138-0.0651245,0.2637939-0.1728516c0.0628052-0.1459351-0.0045166-0.3153687-0.149292-0.3782349   c-16.9848633-7.3459473-25.0137329-15.0217896-25.0928345-15.0981445c-0.1133423-0.1099854-0.295166-0.1054688-0.406311,0.0067749   c-0.1099854,0.1133423-0.1071777,0.295166,0.0067139,0.40625c0.0112915,0.0110474,0.2036743,0.1920166,0.541687,0.4898682   l-1.3078003,1.5359497c-0.2442627-0.2633667-1.6082764-1.7764282-1.8820801-2.9393921   c-0.2188721-0.9320068,0.0018921-3.0222778,0.1444702-4.1329956c1.5534668,2.0331421,7.914978,8.8071899,29.4384155,19.0534058   v4.6032104c0,0.1582642,0.1290283,0.2873535,0.2872925,0.2873535s0.2873535-0.1290894,0.2873535-0.2873535v-4.6828613   l35.4085083-44.6206055c0.2884521,0.296814,0.8967896,1.0886841,1.6420288,3.0084839   c0.0404053,0.1038208,0.1380615,0.1739502,0.2492065,0.1812744C91.3401489,27,91.4243164,26.9432983,91.4782104,26.8461914   c0.0134888-0.0252075,0.03479-0.053833,0.053894-0.0757446c0.072937,0.1049194,0.2424316,0.4584961,0.3703613,1.574707   c0.1279297,1.1245728,0.2559204,1.8619995,0.3501587,2.4007568C92.3468628,31.2891235,92.3953247,31.5935059,92.3770142,31.8704224   z"/><path d="M56.717041,12.8274536L41.0569458,31.3063965l26.6264648,15.671875   c0.3032227,0.1784058,0.6917114,0.1055908,0.909729-0.1706543l14.7200928-18.6522217   c0.267395-0.3388062,0.1697388-0.8361816-0.2058105-1.0487671L57.6009521,12.6699219   C57.3066406,12.503418,56.9356079,12.569519,56.717041,12.8274536z M68.5333862,46.2740479L42.6607056,30.9856567   l13.8984985-16.5713501l25.7658691,14.539978L68.5333862,46.2740479z"/><path d="M63.6524048,48.6392822L40.5484009,35.2314453c-0.5735474-0.3322144-1.315979-0.1919556-1.7267456,0.3294067   l-1.3131714,1.6611328c-0.2379761,0.3013306-0.3356323,0.6913452-0.2677002,1.0695801   c0.0678711,0.3782349,0.295166,0.7098999,0.6234741,0.909729l22.7319336,13.8168945   c0.2143555,0.130188,0.4545288,0.1930542,0.6936035,0.1930542c0.3928223,0,0.781189-0.1705933,1.0449219-0.4926758   l1.6846924-2.0708008c0.2491455-0.3052979,0.3513184-0.7020264,0.2805786-1.0892334   C64.2293091,49.171875,63.9935913,48.836792,63.6524048,48.6392822z M38.1627808,38.7102051   c-0.1879883-0.1144409-0.317627-0.3041382-0.3563232-0.5202026c-0.0393066-0.2166138,0.0168457-0.4393921,0.1531982-0.6116943   l1.3131714-1.6610718c0-0.0006104,0-0.0006104,0-0.0006104c0.149292-0.1890869,0.3748779-0.2906494,0.6043701-0.2906494   c0.1307983,0,0.2632446,0.0330811,0.3827515,0.1026611l3.4006348,1.9733276   c-0.6422119,0.3050537-1.7091064,1.0909424-2.305481,2.9485474L38.1627808,38.7102051z M41.9413452,41.0068359l2.4087524-2.9046631   l4.4227295,2.5665283c-0.6452026,0.2959595-1.770874,1.0914917-2.3735352,3.0476685L41.9413452,41.0068359z M46.9602051,44.057251   l2.486084-2.9977417l4.4851685,2.6026611c-0.6508179,0.2919312-1.8306885,1.0993652-2.4326782,3.1536255L46.9602051,44.057251z    M52.0303345,47.1387939l2.5640869-3.0919189l4.430481,2.5710449c-0.6695557,0.3047485-1.8780518,1.1335449-2.4605713,3.2766724   L52.0303345,47.1387939z M61.0082397,52.5700073c-0.0377808-0.0153198-0.0778198-0.0214844-0.1135254-0.043396   l-3.8415527-2.3348999l2.6417236-3.1849976l3.670166,2.1297607c0.1129761,0.0656128,0.1972046,0.1624146,0.2630615,0.2716064   C63.0808716,49.6011353,61.6983032,50.3156738,61.0082397,52.5700073z"/><path d="M59.6702271,53.210144L36.5656738,39.8023071c-0.5724487-0.3327637-1.3143311-0.1925049-1.7268066,0.3283081   l-1.3131714,1.6616211c-0.237915,0.3013916-0.3355713,0.6914062-0.2676392,1.0696411   c0.0684204,0.3787842,0.2957153,0.7098999,0.6240234,0.909668L56.612915,57.588501   c0.2154541,0.130188,0.4556274,0.1930542,0.6947021,0.1930542c0.3939819,0,0.7822876-0.1705933,1.0449219-0.4915771   l1.685791-2.0718994c0.2480469-0.3052979,0.3502197-0.7026367,0.27948-1.0898438   C60.2459717,53.7421265,60.0103149,53.4065552,59.6702271,53.210144z M34.180603,43.2799683   c-0.1879883-0.1139526-0.3181763-0.3030396-0.3568726-0.5196533c-0.0387573-0.2166138,0.0168457-0.4393921,0.1531982-0.6116943   l1.3131714-1.6611328c0.2351074-0.2974243,0.6588135-0.3787842,0.9871216-0.1879883l3.4007568,1.9732666   c-0.6419067,0.3048096-1.7084351,1.090271-2.3052368,2.9475098L34.180603,43.2799683z M37.9592285,45.5768433l2.4082642-2.9039917   l4.4228516,2.5662842c-0.6454468,0.2960205-1.7709961,1.0916138-2.37323,3.0473633L37.9592285,45.5768433z M42.9780884,48.6275024   l2.4858398-2.9974976l4.4853516,2.602478c-0.6508179,0.2919922-1.8306885,1.0997925-2.4324341,3.1539307L42.9780884,48.6275024z    M48.0476685,51.7090454l2.5645752-3.0918579l4.4307861,2.5708618c-0.6694946,0.3047485-1.8782959,1.133606-2.4608765,3.2773438   L48.0476685,51.7090454z M57.0257568,57.1407471c-0.0380859-0.0155029-0.0782471-0.0217285-0.1143188-0.0438232   l-3.8407593-2.3345947l2.6419067-3.18573l3.6702881,2.1296387c0.1130981,0.065979,0.1973267,0.1627808,0.2632446,0.2720337   C59.0986328,54.1711426,57.7151489,54.8856812,57.0257568,57.1407471z"/><path d="M55.9810181,58.0744629L32.8775635,44.666626c-0.572998-0.3327637-1.315979-0.1907959-1.727356,0.3283081   c0,0,0,0,0,0.0005493l-1.3126221,1.6611328c-0.2384644,0.3013306-0.3361206,0.6919556-0.2681885,1.0701904   c0.0684204,0.3782349,0.2957153,0.7093506,0.6240234,0.9091187l22.7313843,13.8169556   c0.2154541,0.1312866,0.4567871,0.1941528,0.6947021,0.1941528c0.3939819,0,0.781189-0.1717529,1.0427246-0.4927368   l1.6880493-2.0718994c0.2479858-0.3041382,0.348999-0.7014771,0.2783203-1.0886841   C56.5567627,58.6065063,56.3210449,58.2709351,55.9810181,58.0744629z M30.4919434,48.1442871   c-0.1879883-0.1138916-0.317627-0.3030396-0.3568726-0.519043c-0.0387573-0.2166138,0.0167847-0.4400024,0.1537476-0.612854   l1.3126221-1.6605225c0.2345581-0.2974243,0.6599121-0.3793945,0.9876709-0.1879883l3.4006348,1.9732666   c-0.6419678,0.3048706-1.7084351,1.0904541-2.3049316,2.947876L30.4919434,48.1442871z M34.2709961,50.4413452l2.4083252-2.9041138   l4.4229736,2.5665283c-0.6450195,0.2958374-1.7706299,1.0913086-2.3734741,3.0472412L34.2709961,50.4413452z    M39.2894897,53.4917603l2.4857788-2.9974976l4.4857788,2.6029053c-0.6507568,0.291687-1.8309326,1.0992432-2.432373,3.1536865   L39.2894897,53.4917603z M44.3594971,56.5734863l2.5640259-3.0918579l4.4307861,2.5709839   c-0.6698608,0.3048706-1.878479,1.1337891-2.4602661,3.2771606L44.3594971,56.5734863z M53.336853,62.0046387   c-0.0377808-0.0153198-0.0778198-0.0215454-0.1135254-0.043396l-3.8411255-2.3347778l2.6419678-3.1851807l3.6694946,2.1292725   c0.112854,0.065918,0.1971436,0.1628418,0.2629395,0.2722168C55.4092407,59.0358276,54.0267944,59.7504883,53.336853,62.0046387z"/><path d="M17.0817871,71.4215088c-0.548645-0.4514771-1.359436-0.3726807-1.8109131,0.1760254l-2.5883179,3.1455078   c-0.4514771,0.5487061-0.3726807,1.3594971,0.1760254,1.8109741l2.1325684,1.7547607   c0.548645,0.4514771,1.359436,0.3726807,1.8109131-0.1760254l2.5883179-3.1455078   c0.4514771-0.5487061,0.3726807-1.3594971-0.1760254-1.8109741L17.0817871,71.4215088z"/></g><text x="0" y="115" fill="#000000" font-size="5px" font-weight="bold" font-family="'Helvetica Neue', Helvetica, Arial-Unicode, Arial, Sans-serif">Created by mac jam</text><text x="0" y="120" fill="#000000" font-size="5px" font-weight="bold" font-family="'Helvetica Neue', Helvetica, Arial-Unicode, Arial, Sans-serif">from the Noun Project</text></svg>